<svg id="Capa_1" data-name="Capa 1" xmlns="http://www.w3.org/2000/svg" xmlns:xlink="http://www.w3.org/1999/xlink" viewBox="0 0 1064.64 1080"><defs><style>.cls-1{fill:none;}.cls-2{clip-path:url(#clip-path);}.cls-3{fill:#5059bc;}.cls-4{fill:#c8d29c;}.cls-5{fill:#8a9a46;}.cls-6{fill:#f26df9;}</style><clipPath id="clip-path"><rect class="cls-1" width="1920" height="1080"/></clipPath></defs><g class="cls-2"><path class="cls-3" d="M150.35,585.65V492.46c67.38,1.75,162.76,21,217,38.06a534.8,534.8,0,0,1,37.19-39.81c-56-21-172.82-45.95-254.2-47.69V351.57c77.44.88,141.32,18.82,203.45,36.75,46.38,13.13,91.44,25.82,138.7,29.76a644.21,644.21,0,0,1,119.44-65.19c-86.19,32.37-157.07,12.24-244.14-12.26C299.11,321,221.23,299.07,125,302.57l-24.06.87V594l21.88-4.37a259.56,259.56,0,0,1,27.56-3.94"/><path class="cls-4" d="M933.53,305.63c-245.9-28-492.66,91.88-621.3,300.15a325.82,325.82,0,0,1,45.51,20.12l.44-.87C474.12,443.45,689,336.26,906,352.89v91.44C721.76,428.14,531.87,522.65,434.74,678l-.43.44c13.12,11.37,24.94,24.06,35.87,36.75C555.94,567.27,734,477.14,906,494.21v91c9.19.88,18.81,2.19,28,3.94l21.88,4.37V308.26Z"/><path class="cls-5" d="M934,589.59c-105-20.13-217.89,10.5-303.2,81.38C584.38,709.91,549.37,758,527.94,811,506.5,758,471.5,709.91,425.12,671c-84.88-71.32-198.2-101.51-303.21-81.38L100,594l1.75,21.88c7.44,105,56.44,202.57,137.39,275.64,75.25,67.82,169.76,106.76,268.64,111.13,0,0,10.94.44,20.13.44s20.12-.44,20.12-.44c98.45-4.37,193.39-43.31,268.64-111.13,80.95-73.07,129.51-170.63,137.39-275.64L955.84,594ZM503.44,940.92V952.3c-175-11.38-325.09-147.45-349.15-317.65,84-9.19,172,17.5,239.32,74.38,70.89,59.51,111.14,144,109.83,231.89m49.87,11.38V940.48C552,852.54,592.25,768.1,663.13,708.59c58.63-49.44,133-76.13,206.52-76.13a275.44,275.44,0,0,1,32.81,1.75C878.4,804.85,728.33,941.36,553.31,952.3"/><path class="cls-6" d="M442.18,65.43a49.44,49.44,0,1,1-49.44,49.44,49.43,49.43,0,0,1,49.44-49.44"/><path class="cls-6" d="M614.13,65.43a49.44,49.44,0,1,1-49.44,49.44,49.44,49.44,0,0,1,49.44-49.44"/><path class="cls-6" d="M271.54,131.06A49.44,49.44,0,1,1,222.1,180.5a49.44,49.44,0,0,1,49.44-49.44"/><path class="cls-6" d="M784.77,131.06a49.44,49.44,0,1,1-49.45,49.44,49.44,49.44,0,0,1,49.45-49.44"/></g></svg>